HIERARCHY
ROOT Hips
{
	OFFSET 0.000000 0.000000 0.000000
	CHANNELS 6 Xposition Yposition Zposition Xrotation Yrotation Zrotation
	JOINT LeftUpLeg_virtual
	{
		OFFSET 0.000000 0.000000 0.000000
		CHANNELS 3 Xrotation Yrotation Zrotation
		JOINT LeftUpLeg
		{
			OFFSET 15.427100 -6.655098 0.678600
			CHANNELS 3 Xrotation Yrotation Zrotation
			JOINT LeftLeg
			{
				OFFSET 4.081073 -39.591068 13.024000
				CHANNELS 3 Xrotation Yrotation Zrotation
				JOINT LeftFoot
				{
					OFFSET -4.081074 -37.707932 -15.979700
					CHANNELS 3 Xrotation Yrotation Zrotation
					JOINT LeftToeBase
					{
						OFFSET 5.346399 -15.068900 20.645000
						CHANNELS 3 Xrotation Yrotation Zrotation
						JOINT LeftToe_End
						{
							OFFSET 2.754700 0.931300 11.300900
							CHANNELS 3 Xrotation Yrotation Zrotation
							End Site
							{
								OFFSET 0 0 0
							}
						}
					}
				}
			}
		}
	}
	JOINT RightUpLeg_virtual
	{
		OFFSET 0.000000 0.000000 0.000000
		CHANNELS 3 Xrotation Yrotation Zrotation
		JOINT RightUpLeg
		{
			OFFSET -15.569500 -6.655098 0.678600
			CHANNELS 3 Xrotation Yrotation Zrotation
			JOINT RightLeg
			{
				OFFSET -4.081825 -39.591045 13.023800
				CHANNELS 3 Xrotation Yrotation Zrotation
				JOINT RightFoot
				{
					OFFSET 4.081824 -37.707954 -15.979600
					CHANNELS 3 Xrotation Yrotation Zrotation
					JOINT RightToeBase
					{
						OFFSET -5.346400 -15.068900 20.645000
						CHANNELS 3 Xrotation Yrotation Zrotation
						JOINT RightToe_End
						{
							OFFSET -2.754700 0.931300 11.300900
							CHANNELS 3 Xrotation Yrotation Zrotation
							End Site
							{
								OFFSET 0 0 0
							}
						}
					}
				}
			}
		}
	}
	JOINT Spine_virtual
	{
		OFFSET 0.000000 0.000000 0.000000
		CHANNELS 3 Xrotation Yrotation Zrotation
		JOINT Spine
		{
			OFFSET -0.279200 12.230698 -2.892100
			CHANNELS 3 Xrotation Yrotation Zrotation
			JOINT Spine1
			{
				OFFSET -0.232667 10.192268 -1.242267
				CHANNELS 3 Xrotation Yrotation Zrotation
				JOINT Spine1_split
				{
					OFFSET -0.232667 10.192268 -1.242267
					CHANNELS 3 Xrotation Yrotation Zrotation
					JOINT Spine2
					{
						OFFSET -0.232667 10.192268 -1.242267
						CHANNELS 3 Xrotation Yrotation Zrotation
						JOINT Neck_virtual
						{
							OFFSET 0.000000 0.000000 0.000000
							CHANNELS 3 Xrotation Yrotation Zrotation
							JOINT Neck
							{
								OFFSET -0.418800 17.814194 8.416900
								CHANNELS 3 Xrotation Yrotation Zrotation
								JOINT Head
								{
									OFFSET 0.000000 7.031097 3.806800
									CHANNELS 3 Xrotation Yrotation Zrotation
									JOINT HeadTop_End
									{
										OFFSET 0.000000 24.646606 12.978600
										CHANNELS 3 Xrotation Yrotation Zrotation
										End Site
										{
											OFFSET 0 0 0
										}
									}
								}
							}
						}
						JOINT LeftShoulder_virtual
						{
							OFFSET 0.000000 0.000000 0.000000
							CHANNELS 3 Xrotation Yrotation Zrotation
							JOINT LeftShoulder
							{
								OFFSET 8.476499 7.247704 -3.868750
								CHANNELS 3 Xrotation Yrotation Zrotation
								JOINT LeftShoulder_split
								{
									OFFSET 8.476499 7.247704 -3.868750
									CHANNELS 3 Xrotation Yrotation Zrotation
									JOINT LeftArm
									{
										OFFSET 9.308998 -2.777710 0.208600
										CHANNELS 3 Xrotation Yrotation Zrotation
										JOINT LeftForeArm
										{
											OFFSET 29.972298 0.000000 0.000000
											CHANNELS 3 Xrotation Yrotation Zrotation
											JOINT LeftHand
											{
												OFFSET 26.026505 0.000000 0.000000
												CHANNELS 3 Xrotation Yrotation Zrotation
												End Site
												{
													OFFSET 0 0 0
												}
											}
										}
									}
								}
							}
						}
						JOINT RightShoulder_virtual
						{
							OFFSET 0.000000 0.000000 0.000000
							CHANNELS 3 Xrotation Yrotation Zrotation
							JOINT RightShoulder
							{
								OFFSET -7.570500 7.247704 -3.868750
								CHANNELS 3 Xrotation Yrotation Zrotation
								JOINT RightShoulder_split
								{
									OFFSET -7.570500 7.247704 -3.868750
									CHANNELS 3 Xrotation Yrotation Zrotation
									JOINT RightArm
									{
										OFFSET -9.308998 -2.777710 0.208500
										CHANNELS 3 Xrotation Yrotation Zrotation
										JOINT RightForeArm
										{
											OFFSET -29.972300 0.000000 0.000000
											CHANNELS 3 Xrotation Yrotation Zrotation
											JOINT RightHand
											{
												OFFSET -26.026505 0.000000 0.000000
												CHANNELS 3 Xrotation Yrotation Zrotation
												End Site
												{
													OFFSET 0 0 0
												}
											}
										}
									}
								}
							}
						}
					}
				}
			}
		}
	}
}
MOTION
Frames: 5
Frame Time: 0.03333333
-0.185079 78.646393 0.168247 0.000000 0.000000 0.000000 14.984230 -57.780088 13.225898 -48.708036 8.617420 30.814890 44.444256 -9.901618 -7.839006 0.990322 -2.293225 -4.040871 1.430906 -0.236840 -0.641847 0.000000 0.000000 0.000000 15.877917 -58.524906 14.225149 -26.593859 -5.710930 -24.879531 49.427583 9.338213 1.193163 -31.533115 -7.910571 11.866550 7.669607 0.823511 0.806113 0.000000 0.000000 0.000000 16.781729 -60.100535 14.020480 5.384815 1.312957 -2.844895 -4.550912 5.136963 -3.863663 0.836728 -2.355488 0.554619 0.000000 0.000000 0.000000 -2.638494 4.625534 -3.281413 -15.479743 7.539217 8.490147 3.328686 34.176108 2.396502 0.000000 0.000000 0.000000 -3.408863 5.067807 -3.777564 -29.508494 6.416891 6.234998 -7.693936 6.107753 -6.824953 33.271443 -10.334393 -42.082141 -29.075443 -86.549288 -29.387353 0.000000 0.000000 0.000000 -3.803887 4.303120 -3.720645 1.950994 15.967678 11.375893 -5.897059 0.815453 -1.191034 13.097667 17.235629 59.097481 5.867201 67.116560 -8.312368 0.000000 0.000000 0.000000 
-0.092870 78.733109 0.425167 0.000000 0.000000 0.000000 14.777557 -57.704744 13.026122 -48.685602 8.983674 30.991724 44.031388 -9.731827 -8.110247 0.794490 -2.300154 -3.818756 1.474680 -0.274834 -0.538649 0.000000 0.000000 0.000000 15.795026 -58.756211 14.104406 -26.249402 -5.815753 -24.769527 49.393339 9.331089 1.179458 -31.767387 -7.962235 11.624162 7.730754 0.805344 0.874408 0.000000 0.000000 0.000000 16.978098 -60.192722 14.152307 5.433282 1.397537 -2.936231 -4.500883 5.169355 -3.919201 1.121391 -2.156152 0.485065 0.000000 0.000000 0.000000 -2.458920 4.701874 -3.383963 -14.953861 8.162343 8.256909 3.068166 34.066603 2.657236 0.000000 0.000000 0.000000 -3.096666 5.096098 -3.763348 -29.499020 5.904240 6.193392 -7.317485 5.199612 -6.472822 33.577056 -11.497952 -42.336644 -25.348589 -85.794853 -25.370120 0.000000 0.000000 0.000000 -3.641253 4.320150 -3.807152 2.001777 15.938731 11.708701 -6.564027 1.309373 -0.703708 13.928228 16.946524 58.960358 5.164862 66.988617 -7.610093 0.000000 0.000000 0.000000 
0.025029 78.867325 0.546684 0.000000 0.000000 0.000000 14.450418 -57.841252 12.706981 -48.260409 9.475455 31.147394 43.167250 -9.539090 -8.391753 0.501154 -2.167833 -3.598422 1.653449 -0.341402 -0.522142 0.000000 0.000000 0.000000 15.439581 -58.896229 13.716219 -25.659930 -6.069118 -24.533800 49.206209 9.286718 1.108783 -32.232984 -8.123132 11.295028 7.513427 0.765710 1.002668 0.000000 0.000000 0.000000 16.645827 -60.097605 13.941736 5.623927 1.515159 -3.057715 -4.444037 5.356686 -4.051371 1.198866 -2.050511 0.542605 0.000000 0.000000 0.000000 -2.357143 4.906867 -3.606786 -14.434684 8.920721 7.969283 2.655642 33.996901 3.035226 0.000000 0.000000 0.000000 -2.855710 5.315786 -3.842073 -29.468472 4.885333 5.826740 -6.649026 4.207264 -6.151078 33.987428 -12.985931 -42.334161 -17.076260 -83.648405 -16.789693 0.000000 0.000000 0.000000 -3.335988 4.476272 -4.011184 2.002707 15.652873 12.029895 -6.644288 1.486558 -0.638500 15.062500 17.719114 58.101639 4.054037 67.142098 -6.741378 0.000000 0.000000 0.000000 
0.137395 78.994263 0.492294 0.000000 0.000000 0.000000 14.004532 -57.980916 12.269446 -47.629279 9.998071 31.284152 42.271812 -9.382566 -8.665403 0.137726 -1.961158 -3.390196 1.956122 -0.428923 -0.605345 0.000000 0.000000 0.000000 14.891525 -58.909453 13.180567 -25.041550 -6.386094 -24.297932 48.780975 9.241040 1.001932 -32.800245 -8.346671 11.002046 7.073839 0.707659 1.148744 0.000000 0.000000 0.000000 15.929441 -59.743767 13.472316 5.930628 1.571596 -3.131909 -4.373522 5.640999 -4.198520 0.950871 -1.970373 0.633028 0.000000 0.000000 0.000000 -2.346149 5.162598 -3.834907 -14.077072 9.840148 7.657019 2.294029 34.090967 3.247537 0.000000 0.000000 0.000000 -2.661517 5.620989 -3.967849 -29.413749 3.595902 5.225502 -6.173262 3.415055 -6.145140 34.249731 -14.449595 -42.332816 -11.355727 -80.353474 -10.719136 0.000000 0.000000 0.000000 -2.925133 4.721142 -4.257063 1.970173 15.209960 12.286244 -6.447571 1.359304 -0.773573 16.498710 19.259875 56.401192 2.668879 67.487713 -5.842245 0.000000 0.000000 0.000000 
0.188859 79.144981 0.342541 0.000000 0.000000 0.000000 13.428271 -58.033577 11.706186 -47.043006 10.441673 31.444931 41.666285 -9.279545 -8.952705 -0.180224 -1.788431 -3.233345 2.279195 -0.523945 -0.754526 0.000000 0.000000 0.000000 14.169787 -58.706125 12.559371 -24.484638 -6.691214 -24.133869 48.195628 9.277256 0.875796 -33.224093 -8.535812 10.958753 6.498988 0.642920 1.261857 0.000000 0.000000 0.000000 14.989183 -59.091552 12.789274 6.296259 1.478842 -3.087889 -4.289474 5.941646 -4.304467 0.706023 -1.999770 0.437966 0.000000 0.000000 0.000000 -2.399829 5.379575 -3.949262 -13.721668 10.967417 7.336365 2.118565 34.435488 3.063601 0.000000 0.000000 0.000000 -2.541062 5.899076 -4.083435 -29.350767 2.226456 4.419744 -6.233666 3.100022 -6.561367 34.317401 -15.651365 -42.538459 -8.566295 -76.692561 -7.508565 0.000000 0.000000 0.000000 -2.499110 4.958643 -4.440175 1.965063 14.771840 12.432769 -6.100584 1.170120 -0.921353 18.204515 21.322097 53.871314 1.111177 67.883215 -4.917191 0.000000 0.000000 0.000000 
